<?xml version="1.0" encoding="UTF-8" ?>
<!DOCTYPE svg PUBLIC "-//W3C//DTD SVG 1.1//EN" "http://www.w3.org/Graphics/SVG/1.1/DTD/svg11.dtd">
<svg width="150pt" height="401pt" viewBox="0 0 150 401" version="1.1" xmlns="http://www.w3.org/2000/svg">
<g id="#070000f0">
<path fill="#070000" opacity="0.94" d=" M 44.76 0.00 L 105.32 0.00 C 105.55 111.93 105.20 223.86 105.49 335.78 C 120.32 335.80 135.16 335.55 149.99 335.90 C 148.22 337.85 146.29 339.64 144.26 341.32 C 128.82 354.35 113.74 367.82 98.15 380.68 L 97.93 378.37 C 98.91 377.53 99.87 376.68 100.79 375.78 C 102.72 376.56 104.23 374.77 104.33 372.98 C 105.51 371.95 106.67 370.90 107.77 369.79 C 109.71 370.57 111.22 368.78 111.33 366.98 C 112.52 365.93 113.70 364.88 114.82 363.77 C 116.68 364.43 118.09 362.81 118.44 361.15 C 119.51 359.98 120.65 358.88 121.73 357.74 C 123.66 358.52 125.26 356.82 125.36 354.98 C 126.54 353.92 127.72 352.86 128.84 351.73 C 131.25 352.48 132.95 350.43 133.28 348.26 C 135.75 345.55 138.42 342.99 141.62 341.15 C 143.55 340.12 145.25 338.73 146.64 337.05 C 137.42 336.50 128.18 336.95 118.95 336.79 C 113.79 336.85 108.57 336.37 103.47 337.43 C 103.75 335.62 103.99 333.81 104.02 331.99 C 103.97 269.97 104.02 207.95 104.00 145.93 C 103.89 97.65 104.21 49.36 103.85 1.09 C 84.65 0.96 65.44 0.84 46.24 1.15 C 46.05 109.75 46.26 218.36 46.14 326.97 C 46.06 330.50 46.09 334.04 46.71 337.52 C 41.24 336.20 35.60 336.97 30.04 336.80 C 21.18 336.94 12.29 336.47 3.44 337.07 C 4.56 338.33 5.91 339.34 7.36 340.20 C 8.17 340.79 8.97 341.39 9.77 342.00 C 9.88 344.30 11.68 346.26 14.10 345.68 C 14.94 346.49 15.81 347.26 16.68 348.04 C 16.95 350.29 18.72 352.24 21.15 351.65 C 21.95 352.50 22.79 353.33 23.58 354.21 C 24.19 356.23 25.70 358.20 28.07 357.75 C 31.18 360.17 34.38 362.51 36.98 365.50 C 38.27 367.65 40.16 369.28 42.52 370.16 C 43.23 370.79 43.95 371.43 44.66 372.07 C 44.95 374.31 46.71 376.29 49.14 375.69 C 49.96 376.54 50.82 377.37 51.67 378.20 C 52.05 380.37 53.72 382.43 56.15 381.71 C 56.95 382.53 57.79 383.34 58.63 384.14 C 59.08 386.28 60.71 388.40 63.16 387.71 C 63.96 388.55 64.80 389.37 65.63 390.19 C 66.02 392.37 67.72 394.35 70.15 393.74 C 71.49 395.09 72.92 396.34 74.41 397.52 L 74.55 397.64 L 74.71 397.59 C 76.52 397.17 77.78 395.71 79.18 394.60 L 79.42 394.40 L 79.60 394.16 C 82.19 391.31 85.48 389.22 88.25 386.54 C 89.07 386.95 89.89 387.38 90.71 387.82 C 85.02 391.55 80.34 396.54 75.00 400.71 C 52.47 381.36 29.95 361.98 7.41 342.64 C 5.01 340.55 2.67 338.36 0.00 336.61 L 0.00 336.23 C 14.86 335.14 29.80 336.05 44.69 335.72 C 44.76 223.81 44.62 111.91 44.76 0.00 Z" />
<path fill="#070000" opacity="0.94" d=" M 91.47 384.19 C 93.43 382.94 95.54 381.96 97.68 381.08 C 95.85 382.77 94.06 384.51 92.25 386.23 C 91.83 385.98 90.99 385.49 90.57 385.24 C 90.79 384.98 91.25 384.46 91.47 384.19 Z" />
</g>
<g id="#630000ff">
<path fill="#630000" opacity="1.00" d=" M 46.24 1.15 C 65.44 0.84 84.65 0.96 103.85 1.09 C 104.21 49.36 103.89 97.65 104.00 145.93 C 104.02 207.95 103.97 269.97 104.02 331.99 C 103.99 333.81 103.75 335.62 103.47 337.43 C 103.20 336.31 103.03 335.17 102.99 334.02 C 103.02 223.35 102.99 112.68 103.00 2.00 C 84.33 2.00 65.67 2.00 47.00 2.00 C 47.00 110.01 47.00 218.02 47.00 326.03 C 46.97 329.86 47.23 333.71 46.71 337.52 C 46.09 334.04 46.06 330.50 46.14 326.97 C 46.26 218.36 46.05 109.75 46.24 1.15 Z" />
<path fill="#630000" opacity="1.00" d=" M 3.44 337.07 C 12.29 336.47 21.18 336.94 30.04 336.80 C 35.60 336.97 41.24 336.20 46.71 337.52 C 45.16 337.90 43.56 338.04 41.96 338.04 C 29.85 337.97 17.74 338.00 5.63 338.01 C 6.06 338.56 6.93 339.65 7.36 340.20 C 5.91 339.34 4.56 338.33 3.44 337.07 Z" />
<path fill="#630000" opacity="1.00" d=" M 103.47 337.43 C 108.57 336.37 113.79 336.85 118.95 336.79 C 128.18 336.95 137.42 336.50 146.64 337.05 C 145.25 338.73 143.55 340.12 141.62 341.15 C 142.53 340.11 143.43 339.06 144.34 338.02 C 133.22 338.00 122.11 337.97 111.00 338.03 C 108.49 338.00 105.89 338.27 103.47 337.43 Z" />
<path fill="#630000" opacity="1.00" d=" M 9.77 342.00 C 11.65 342.64 13.00 344.08 14.10 345.68 C 11.68 346.26 9.88 344.30 9.77 342.00 Z" />
<path fill="#630000" opacity="1.00" d=" M 16.68 348.04 C 18.65 348.54 19.97 350.09 21.15 351.65 C 18.72 352.24 16.95 350.29 16.68 348.04 Z" />
<path fill="#630000" opacity="1.00" d=" M 128.84 351.73 C 129.90 350.10 131.37 348.78 133.28 348.26 C 132.95 350.43 131.25 352.48 128.84 351.73 Z" />
<path fill="#630000" opacity="1.00" d=" M 23.58 354.21 C 25.78 354.15 26.92 356.23 28.07 357.75 C 25.70 358.20 24.19 356.23 23.58 354.21 Z" />
<path fill="#630000" opacity="1.00" d=" M 121.73 357.74 C 122.62 356.45 123.78 355.32 125.36 354.98 C 125.26 356.82 123.66 358.52 121.73 357.74 Z" />
<path fill="#630000" opacity="1.00" d=" M 114.82 363.77 C 115.67 362.53 116.70 360.93 118.44 361.15 C 118.09 362.81 116.68 364.43 114.82 363.77 Z" />
<path fill="#630000" opacity="1.00" d=" M 36.98 365.50 C 39.13 366.67 40.97 368.28 42.52 370.16 C 40.16 369.28 38.27 367.65 36.98 365.50 Z" />
<path fill="#630000" opacity="1.00" d=" M 107.77 369.79 C 108.60 368.46 109.76 367.33 111.33 366.98 C 111.22 368.78 109.71 370.57 107.77 369.79 Z" />
<path fill="#630000" opacity="1.00" d=" M 44.66 372.07 C 46.61 372.63 48.01 374.07 49.14 375.69 C 46.71 376.29 44.95 374.31 44.66 372.07 Z" />
<path fill="#630000" opacity="1.00" d=" M 100.79 375.78 C 101.60 374.45 102.76 373.32 104.33 372.98 C 104.23 374.77 102.72 376.56 100.79 375.78 Z" />
<path fill="#630000" opacity="1.00" d=" M 51.67 378.20 C 53.61 378.71 55.06 380.08 56.15 381.71 C 53.72 382.43 52.05 380.37 51.67 378.20 Z" />
<path fill="#630000" opacity="1.00" d=" M 91.47 384.19 C 93.30 381.92 95.52 380.00 97.93 378.37 L 98.15 380.68 C 98.03 380.78 97.80 380.98 97.68 381.08 C 95.54 381.96 93.43 382.94 91.47 384.19 Z" />
<path fill="#630000" opacity="1.00" d=" M 58.63 384.14 C 60.61 384.64 62.04 386.08 63.16 387.71 C 60.71 388.40 59.08 386.28 58.63 384.14 Z" />
<path fill="#630000" opacity="1.00" d=" M 65.63 390.19 C 67.60 390.69 69.05 392.09 70.15 393.74 C 67.72 394.35 66.02 392.37 65.63 390.19 Z" />
<path fill="#630000" opacity="1.00" d=" M 79.38 394.37 L 79.60 394.16 L 79.42 394.40 L 79.18 394.60 L 79.38 394.37 Z" />
<path fill="#630000" opacity="1.00" d=" M 74.41 397.52 C 74.48 397.54 74.63 397.57 74.71 397.59 L 74.55 397.64 L 74.41 397.52 Z" />
</g>
<g id="#00ff00ff">
<path fill="#00ff00" opacity="1.00" d=" M 47.00 2.00 C 65.67 2.00 84.33 2.00 103.00 2.00 C 102.99 112.68 103.02 223.35 102.99 334.02 C 103.03 335.17 103.20 336.31 103.47 337.43 C 105.89 338.27 108.49 338.00 111.00 338.03 C 122.11 337.97 133.22 338.00 144.34 338.02 C 143.43 339.06 142.53 340.11 141.62 341.15 C 138.42 342.99 135.75 345.55 133.28 348.26 C 131.37 348.78 129.90 350.10 128.84 351.73 C 127.72 352.86 126.54 353.92 125.36 354.98 C 123.78 355.32 122.62 356.45 121.73 357.74 C 120.65 358.88 119.51 359.98 118.44 361.15 C 116.70 360.93 115.67 362.53 114.82 363.77 C 113.70 364.88 112.52 365.93 111.33 366.98 C 109.76 367.33 108.60 368.46 107.77 369.79 C 106.67 370.90 105.51 371.95 104.33 372.98 C 102.76 373.32 101.60 374.45 100.79 375.78 C 99.87 376.68 98.91 377.53 97.93 378.37 C 95.52 380.00 93.30 381.92 91.47 384.19 C 91.25 384.46 90.79 384.98 90.57 385.24 C 89.61 385.27 88.91 385.94 88.25 386.54 C 85.48 389.22 82.19 391.31 79.60 394.16 L 79.38 394.37 L 79.18 394.60 C 77.78 395.71 76.52 397.17 74.71 397.59 C 74.63 397.57 74.48 397.54 74.41 397.52 C 72.92 396.34 71.49 395.09 70.15 393.74 C 69.05 392.09 67.60 390.69 65.63 390.19 C 64.80 389.37 63.96 388.55 63.16 387.71 C 62.04 386.08 60.61 384.64 58.63 384.14 C 57.79 383.34 56.95 382.53 56.15 381.71 C 55.06 380.08 53.61 378.71 51.67 378.20 C 50.82 377.37 49.96 376.54 49.14 375.69 C 48.01 374.07 46.61 372.63 44.66 372.07 C 43.95 371.43 43.23 370.79 42.52 370.16 C 40.97 368.28 39.13 366.67 36.98 365.50 C 34.38 362.51 31.18 360.17 28.07 357.75 C 26.92 356.23 25.78 354.15 23.58 354.21 C 22.79 353.33 21.95 352.50 21.15 351.65 C 19.97 350.09 18.65 348.54 16.68 348.04 C 15.81 347.26 14.94 346.49 14.10 345.68 C 13.00 344.08 11.65 342.64 9.77 342.00 C 8.97 341.39 8.17 340.79 7.36 340.20 C 6.93 339.65 6.06 338.56 5.63 338.01 C 17.74 338.00 29.85 337.97 41.96 338.04 C 43.56 338.04 45.16 337.90 46.71 337.52 C 47.23 333.71 46.97 329.86 47.00 326.03 C 47.00 218.02 47.00 110.01 47.00 2.00 Z" />
</g>
</svg>
