<svg xmlns="http://www.w3.org/2000/svg" xmlns:xlink="http://www.w3.org/1999/xlink" width="500" zoomAndPan="magnify" viewBox="0 0 375 374.999991" height="500" preserveAspectRatio="xMidYMid meet" version="1.0"><defs><clipPath id="3d7a8f0c7d"><path d="M 6.109375 5.882812 L 369 5.882812 L 369 368.882812 L 6.109375 368.882812 Z M 6.109375 5.882812 " clip-rule="nonzero"/></clipPath></defs><path fill="#daa520" d="M 198.5625 281.371094 L 266.582031 135.164062 L 155.421875 213.46875 Z M 198.5625 281.371094 " fill-opacity="1" fill-rule="nonzero"/><path fill="#daa520" d="M 82.445312 176.824219 C 100.171875 183.199219 118.476562 189.785156 136.445312 196.414062 C 137.449219 196.785156 137.78125 196.742188 137.796875 196.742188 C 137.808594 196.738281 138.160156 196.6875 139.070312 196.042969 C 168.796875 175.027344 198.976562 153.808594 228.578125 133.011719 Z M 82.445312 176.824219 " fill-opacity="1" fill-rule="nonzero"/><path fill="#daa520" d="M 145.695312 258.496094 L 152.597656 252.640625 L 147.242188 244.226562 Z M 145.695312 258.496094 " fill-opacity="1" fill-rule="nonzero"/><g clip-path="url(#3d7a8f0c7d)"><path fill="#daa520" d="M 187.574219 5.882812 C 187.417969 5.882812 187.257812 5.882812 187.101562 5.882812 C 139.976562 5.882812 93.550781 25.363281 59.652344 59.382812 C 25.039062 94.117188 6.144531 140.410156 6.453125 189.734375 C 7.070312 288.691406 88.554688 369.109375 188.140625 369.109375 C 188.226562 369.109375 188.304688 369.109375 188.390625 369.109375 C 236.414062 369.042969 281.675781 350.113281 315.832031 315.808594 C 350.074219 281.417969 368.855469 235.925781 368.710938 187.707031 C 368.417969 87.722656 287.160156 6.15625 187.574219 5.882812 Z M 304.734375 107.90625 C 289.925781 139.945312 274.769531 172.460938 260.113281 203.910156 C 254.574219 215.796875 248.847656 228.085938 243.21875 240.175781 C 239.476562 248.214844 235.6875 256.394531 232.023438 264.304688 C 225.324219 278.765625 218.394531 293.714844 211.488281 308.390625 C 210.828125 309.796875 207.191406 316.839844 200.675781 317.144531 C 200.53125 317.152344 200.386719 317.152344 200.242188 317.152344 C 194.105469 317.152344 189.851562 311.117188 189.046875 309.878906 C 182.824219 300.335938 176.636719 290.574219 170.652344 281.132812 C 168.929688 278.410156 167.160156 275.621094 165.394531 272.84375 C 164.996094 273.183594 164.375 273.710938 163.617188 274.351562 C 146.734375 288.660156 144.113281 290.242188 142.023438 291.3125 C 137.101562 293.84375 130.382812 297.300781 126.042969 294.558594 C 125.097656 293.964844 122.738281 292.105469 122.046875 278.078125 C 121.882812 274.730469 121.617188 266.71875 123.332031 249.777344 C 123.636719 246.765625 124.148438 242.449219 125.160156 233.808594 C 125.777344 228.558594 126.402344 223.371094 127.03125 218.226562 C 107.792969 211.40625 88.292969 204.351562 69.433594 197.527344 C 60.796875 194.402344 51.863281 191.171875 43.074219 188.003906 C 40.980469 187.25 38.777344 186.378906 36.851562 184.761719 C 33.460938 181.910156 32.1875 177.644531 33.453125 173.34375 C 34.859375 168.554688 39.738281 164.789062 43.832031 163.542969 C 101.847656 145.910156 158.871094 128.785156 206.996094 114.355469 C 237.226562 105.292969 264.203125 97.324219 289.472656 89.984375 C 291.367188 89.4375 293.703125 89.195312 295.886719 89.332031 C 300.847656 89.640625 303.277344 91.84375 304.445312 93.636719 C 307.207031 97.890625 306.53125 104.015625 304.734375 107.90625 Z M 304.734375 107.90625 " fill-opacity="1" fill-rule="nonzero"/></g><path fill="#f1f2f2" d="M 295.886719 89.335938 C 293.707031 89.199219 291.367188 89.4375 289.472656 89.988281 C 264.207031 97.328125 237.230469 105.296875 206.996094 114.359375 C 158.871094 128.789062 101.851562 145.914062 43.835938 163.546875 C 39.742188 164.792969 34.863281 168.558594 33.453125 173.347656 C 32.191406 177.644531 33.460938 181.914062 36.851562 184.765625 C 38.777344 186.382812 40.984375 187.253906 43.078125 188.007812 C 51.863281 191.175781 60.796875 194.40625 69.4375 197.53125 C 88.296875 204.355469 107.792969 211.410156 127.035156 218.230469 C 126.402344 223.375 125.78125 228.5625 125.164062 233.8125 C 124.148438 242.453125 123.636719 246.769531 123.332031 249.78125 C 121.621094 266.722656 121.886719 274.738281 122.050781 278.082031 C 122.738281 292.109375 125.101562 293.964844 126.046875 294.5625 C 130.386719 297.304688 137.105469 293.847656 142.027344 291.316406 C 144.113281 290.246094 146.738281 288.664062 163.621094 274.355469 C 164.375 273.714844 164.996094 273.1875 165.398438 272.847656 C 167.160156 275.625 168.929688 278.414062 170.65625 281.132812 C 176.640625 290.578125 182.828125 300.339844 189.046875 309.882812 C 189.851562 311.117188 194.105469 317.15625 200.242188 317.15625 C 200.386719 317.15625 200.53125 317.152344 200.679688 317.148438 C 207.191406 316.84375 210.828125 309.800781 211.492188 308.390625 C 218.398438 293.71875 225.324219 278.769531 232.023438 264.308594 C 235.691406 256.398438 239.480469 248.21875 243.222656 240.179688 C 248.847656 228.089844 254.578125 215.800781 260.117188 203.914062 C 274.773438 172.464844 289.929688 139.945312 304.738281 107.910156 C 306.535156 104.019531 307.210938 97.894531 304.449219 93.640625 C 303.28125 91.847656 300.851562 89.644531 295.886719 89.335938 Z M 139.070312 196.042969 C 138.160156 196.6875 137.808594 196.742188 137.796875 196.742188 C 137.78125 196.746094 137.449219 196.785156 136.445312 196.414062 C 118.476562 189.785156 100.171875 183.199219 82.445312 176.824219 L 228.582031 133.011719 C 198.976562 153.804688 168.796875 175.027344 139.074219 196.039062 Z M 145.695312 258.496094 L 147.242188 244.230469 L 152.597656 252.644531 Z M 198.5625 281.371094 L 155.421875 213.46875 L 266.582031 135.164062 Z M 198.5625 281.371094 " fill-opacity="1" fill-rule="nonzero"/></svg>