<svg xmlns="http://www.w3.org/2000/svg" xmlns:xlink="http://www.w3.org/1999/xlink" width="500" zoomAndPan="magnify" viewBox="0 0 375 374.999991" height="500" preserveAspectRatio="xMidYMid meet" version="1.0"><defs><clipPath id="838e497611"><path d="M 0 4.351562 L 375 4.351562 L 375 370.628906 L 0 370.628906 Z M 0 4.351562 " clip-rule="nonzero"/></clipPath></defs><g clip-path="url(#838e497611)"><path fill="#daa520" d="M 13.851562 232.03125 C 14.328125 231.738281 15.296875 231.332031 16.457031 231.910156 L 164.503906 305.488281 C 164.714844 305.589844 164.929688 305.683594 165.148438 305.761719 C 165.203125 305.78125 165.257812 305.796875 165.316406 305.816406 C 165.480469 305.871094 165.648438 305.921875 165.816406 305.960938 C 165.878906 305.976562 165.941406 305.988281 166.007812 306.003906 C 166.167969 306.039062 166.332031 306.066406 166.496094 306.085938 C 166.5625 306.09375 166.625 306.101562 166.695312 306.109375 C 166.855469 306.125 167.023438 306.136719 167.1875 306.136719 C 167.226562 306.136719 167.265625 306.144531 167.300781 306.144531 C 167.324219 306.144531 167.34375 306.140625 167.363281 306.140625 C 167.644531 306.136719 167.929688 306.117188 168.207031 306.078125 C 168.242188 306.070312 168.277344 306.0625 168.3125 306.058594 C 168.5625 306.015625 168.808594 305.960938 169.050781 305.890625 C 169.101562 305.875 169.152344 305.863281 169.203125 305.847656 C 169.46875 305.761719 169.726562 305.660156 169.976562 305.542969 C 170.023438 305.523438 170.070312 305.496094 170.117188 305.472656 C 170.359375 305.351562 170.597656 305.214844 170.824219 305.0625 C 170.835938 305.054688 170.851562 305.046875 170.863281 305.039062 L 170.898438 305.015625 C 170.910156 305.007812 170.925781 305 170.9375 304.992188 L 372.277344 166.875 C 375.144531 164.910156 375.875 160.992188 373.90625 158.125 C 371.941406 155.261719 368.023438 154.53125 365.160156 156.496094 L 166.792969 292.570312 L 93.121094 255.957031 L 25.113281 222.160156 C 17.386719 218.316406 12.582031 210.570312 12.582031 201.9375 L 12.582031 169.808594 C 12.582031 168.515625 13.375 167.832031 13.847656 167.539062 C 14.320312 167.246094 15.285156 166.839844 16.441406 167.417969 L 164.503906 241.003906 C 164.742188 241.121094 164.992188 241.222656 165.238281 241.308594 C 165.320312 241.335938 165.398438 241.355469 165.480469 241.378906 C 165.652344 241.429688 165.824219 241.480469 166 241.519531 C 166.09375 241.539062 166.191406 241.550781 166.289062 241.566406 C 166.449219 241.59375 166.613281 241.617188 166.777344 241.628906 C 166.878906 241.636719 166.980469 241.644531 167.082031 241.644531 C 167.15625 241.648438 167.230469 241.660156 167.300781 241.660156 C 167.367188 241.660156 167.433594 241.644531 167.496094 241.644531 C 167.671875 241.640625 167.847656 241.625 168.023438 241.605469 C 168.144531 241.59375 168.261719 241.578125 168.382812 241.558594 C 168.5625 241.527344 168.738281 241.484375 168.914062 241.4375 C 169.027344 241.40625 169.136719 241.378906 169.246094 241.34375 C 169.4375 241.28125 169.625 241.207031 169.808594 241.125 C 169.898438 241.085938 169.988281 241.054688 170.078125 241.011719 C 170.347656 240.878906 170.609375 240.730469 170.863281 240.554688 L 372.277344 102.390625 C 372.484375 102.246094 372.679688 102.089844 372.867188 101.929688 C 372.917969 101.882812 372.960938 101.839844 373.011719 101.792969 C 373.148438 101.664062 373.28125 101.53125 373.402344 101.394531 C 373.449219 101.34375 373.492188 101.296875 373.535156 101.246094 C 373.667969 101.085938 373.792969 100.921875 373.910156 100.75 C 373.929688 100.71875 373.953125 100.691406 373.972656 100.660156 C 374.109375 100.449219 374.234375 100.234375 374.34375 100.015625 C 374.359375 99.984375 374.371094 99.953125 374.386719 99.921875 C 374.476562 99.734375 374.554688 99.546875 374.625 99.355469 C 374.648438 99.285156 374.671875 99.21875 374.695312 99.152344 C 374.75 98.976562 374.796875 98.804688 374.839844 98.628906 C 374.855469 98.566406 374.871094 98.503906 374.886719 98.4375 C 374.933594 98.203125 374.96875 97.964844 374.988281 97.722656 C 374.988281 97.691406 374.988281 97.660156 374.992188 97.625 C 375.003906 97.410156 375.007812 97.195312 375 96.980469 C 375 96.953125 375.003906 96.921875 375.003906 96.894531 C 375 96.855469 374.992188 96.820312 374.988281 96.785156 C 374.976562 96.585938 374.957031 96.386719 374.921875 96.1875 C 374.914062 96.136719 374.910156 96.089844 374.898438 96.042969 C 374.855469 95.796875 374.796875 95.550781 374.71875 95.3125 C 374.71875 95.304688 374.714844 95.296875 374.710938 95.292969 C 374.640625 95.070312 374.554688 94.851562 374.460938 94.636719 C 374.429688 94.574219 374.398438 94.507812 374.367188 94.445312 C 374.292969 94.292969 374.210938 94.140625 374.125 93.996094 C 374.078125 93.921875 374.035156 93.847656 373.988281 93.777344 C 373.960938 93.730469 373.9375 93.6875 373.90625 93.644531 C 373.835938 93.542969 373.761719 93.449219 373.683594 93.351562 C 373.644531 93.296875 373.601562 93.242188 373.558594 93.1875 C 373.398438 92.996094 373.234375 92.816406 373.058594 92.648438 C 373.046875 92.632812 373.03125 92.625 373.019531 92.613281 C 372.851562 92.453125 372.671875 92.308594 372.492188 92.171875 C 372.441406 92.136719 372.394531 92.105469 372.347656 92.070312 C 372.183594 91.953125 372.015625 91.847656 371.839844 91.746094 C 371.808594 91.726562 371.78125 91.707031 371.75 91.691406 L 214.429688 5.132812 C 212.320312 3.96875 209.734375 4.117188 207.769531 5.503906 L 2.664062 150.203125 C 2.632812 150.226562 2.605469 150.253906 2.574219 150.277344 C 2.417969 150.394531 2.265625 150.515625 2.117188 150.648438 C 2.0625 150.695312 2.011719 150.742188 1.957031 150.792969 C 1.804688 150.941406 1.65625 151.09375 1.515625 151.253906 C 1.496094 151.277344 1.472656 151.300781 1.453125 151.324219 C 1.296875 151.511719 1.15625 151.710938 1.019531 151.917969 C 0.988281 151.964844 0.960938 152.015625 0.929688 152.066406 C 0.828125 152.230469 0.734375 152.402344 0.648438 152.574219 C 0.621094 152.632812 0.59375 152.683594 0.570312 152.742188 C 0.476562 152.945312 0.390625 153.15625 0.320312 153.371094 C 0.316406 153.390625 0.308594 153.40625 0.300781 153.425781 C 0.222656 153.664062 0.164062 153.90625 0.117188 154.15625 C 0.105469 154.210938 0.101562 154.265625 0.0898438 154.320312 C 0.0625 154.503906 0.0351562 154.695312 0.0234375 154.886719 C 0.015625 154.96875 0.015625 155.054688 0.0117188 155.136719 C 0.0078125 155.207031 0 155.277344 0 155.347656 L 0 201.9375 C 0 209.296875 2.246094 216.238281 6.246094 222 C 2.316406 224.867188 0 229.382812 0 234.308594 L 0 266.421875 C 0 279.863281 7.476562 291.929688 19.515625 297.914062 L 164.503906 369.972656 C 165.390625 370.410156 166.347656 370.628906 167.300781 370.628906 C 168.550781 370.628906 169.796875 370.257812 170.863281 369.523438 L 372.277344 231.359375 C 375.144531 229.394531 375.875 225.476562 373.90625 222.609375 C 371.941406 219.746094 368.023438 219.015625 365.160156 220.980469 L 166.792969 357.054688 L 25.117188 286.644531 C 17.386719 282.800781 12.582031 275.050781 12.582031 266.421875 L 12.582031 234.308594 C 12.582031 233.011719 13.378906 232.324219 13.851562 232.03125 " fill-opacity="1" fill-rule="nonzero"/></g></svg>