<svg xmlns="http://www.w3.org/2000/svg" xmlns:xlink="http://www.w3.org/1999/xlink" width="500" zoomAndPan="magnify" viewBox="0 0 375 374.999991" height="500" preserveAspectRatio="xMidYMid meet" version="1.0"><defs><clipPath id="464349f5c9"><path d="M 0 18.75 L 375 18.75 L 375 356.25 L 0 356.25 Z M 0 18.75 " clip-rule="nonzero"/></clipPath></defs><g clip-path="url(#464349f5c9)"><path fill="#daa520" d="M 235.566406 157.871094 L 333.101562 18.75 L 284.667969 18.75 L 211.300781 123.367188 L 145.75 30.644531 L 137.25 19.078125 L 137.25 18.75 L 0 18.75 L 31.183594 62.53125 L 142.699219 221.113281 L 47.910156 356.25 L 96.34375 356.25 L 166.949219 255.574219 L 229.167969 344.09375 L 237.578125 356.25 L 375 356.25 L 343.816406 311.609375 Z M 320.777344 328.5 L 252.207031 328.5 L 54.222656 49.5 L 124.097656 49.5 L 123.75 48.421875 L 123.75 48.425781 L 123.75 48.421875 L 320.863281 328.5 Z M 320.777344 328.5 " fill-opacity="1" fill-rule="nonzero"/></g></svg>