<svg xmlns="http://www.w3.org/2000/svg" xmlns:xlink="http://www.w3.org/1999/xlink" width="500" zoomAndPan="magnify" viewBox="0 0 375 374.999991" height="500" preserveAspectRatio="xMidYMid meet" version="1.0"><path fill="#daa520" d="M 331.730469 86.539062 C 331.730469 86.539062 81.359375 86.539062 38.191406 86.539062 C 25.527344 86.539062 14.277344 84 14.277344 72.117188 L 331.730469 57.691406 L 331.730469 28.847656 C 331.730469 4.960938 312.347656 0 288.460938 0 L 29.148438 43.269531 C 6.042969 48.402344 0 58.195312 0 72.117188 L 0 331.730469 C 0 355.617188 19.382812 375 43.269531 375 L 331.730469 375 C 355.617188 375 375 355.617188 375 331.730469 L 375 129.808594 C 375 105.921875 355.617188 86.539062 331.730469 86.539062 Z M 317.308594 259.617188 C 301.382812 259.617188 288.460938 246.691406 288.460938 230.769531 C 288.460938 214.847656 301.382812 201.921875 317.308594 201.921875 C 333.230469 201.921875 346.152344 214.847656 346.152344 230.769531 C 346.152344 246.691406 333.230469 259.617188 317.308594 259.617188 Z M 317.308594 259.617188 " fill-opacity="1" fill-rule="nonzero"/></svg>